<?xml version="1.0" encoding="iso-8859-1"?>
<!-- Generator: Adobe Illustrator 19.0.0, SVG Export Plug-In . SVG Version: 6.00 Build 0)  -->
<svg version="1.1" id="Capa_1" xmlns="http://www.w3.org/2000/svg" xmlns:xlink="http://www.w3.org/1999/xlink" x="0px" y="0px"
	 viewBox="0 0 512 512" style="enable-background:new 0 0 512 512;" xml:space="preserve">
<linearGradient id="SVGID_1_" gradientUnits="userSpaceOnUse" x1="10.1932" y1="645.015" x2="-52.4738" y2="581.012" gradientTransform="matrix(8 0 0 -8 342.9096 5085)">
	<stop  offset="0" style="stop-color:#F7941E"/>
	<stop  offset="1" style="stop-color:#EE2A7B"/>
</linearGradient>
<path style="fill:url(#SVGID_1_);" d="M103.213,264c0.8,0,1.6,0,2.4,0c3.2,0,6.4-2.4,8-5.6l4-16c0.8-4-1.6-8.8-5.6-9.6
	s-8.8,1.6-9.6,5.6l-4,16C96.013,258.4,98.413,262.4,103.213,264z"/>
<linearGradient id="SVGID_2_" gradientUnits="userSpaceOnUse" x1="26.8639" y1="628.6918" x2="-35.8031" y2="564.6918" gradientTransform="matrix(8 0 0 -8 342.9096 5085)">
	<stop  offset="0" style="stop-color:#F7941E"/>
	<stop  offset="1" style="stop-color:#EE2A7B"/>
</linearGradient>
<path style="fill:url(#SVGID_2_);" d="M464.013,421.6l-59.2-208c-8-32-36.8-54.4-69.6-54.4h-157.6c-32.8,0-61.6,22.4-69.6,53.6
	c-0.8,4,1.6,8.8,5.6,9.6s8.8-1.6,9.6-5.6c6.4-24.8,28.8-41.6,54.4-41.6h12l-5.6,23.2c-0.8,4,1.6,8.8,5.6,9.6c0.8,0,1.6,0,1.6,0
	c3.2,0,7.2-2.4,8-6.4l6.4-25.6h99.2l6.4,25.6c0.8,4,4,6.4,8,6.4c0.8,0,1.6,0,1.6,0c4-0.8,7.2-5.6,5.6-9.6l-4-22.4h12
	c25.6,0,48,17.6,54.4,42.4l59.2,208c4,15.2,0,31.2-10.4,44.8c-12,16-30.4,24.8-49.6,24.8h-264.8c-19.2,0-37.6-8.8-48.8-24.8
	c-10.4-13.6-14.4-29.6-10.4-45.6l40.8-136c1.6-4-0.8-8.8-5.6-9.6c-4-1.6-8.8,0.8-9.6,5.6l-41.6,136c-4.8,20.8,0,42.4,12.8,60
	c15.2,19.2,37.6,30.4,61.6,30.4h264.8c24,0,47.2-12,62.4-31.2C464.013,463.2,468.813,441.6,464.013,421.6z"/>
<linearGradient id="SVGID_3_" gradientUnits="userSpaceOnUse" x1="6.9878" y1="648.1537" x2="-55.6782" y2="584.1507" gradientTransform="matrix(8 0 0 -8 342.9096 5085)">
	<stop  offset="0" style="stop-color:#F7941E"/>
	<stop  offset="1" style="stop-color:#EE2A7B"/>
</linearGradient>
<path style="fill:url(#SVGID_3_);" d="M173.613,0l36.8,128h92l43.2-128H173.613z M290.413,112h-23.2l20.8-61.6
	c1.6-4-0.8-8.8-4.8-10.4c-4-1.6-8.8,0.8-10.4,4.8l-16.8,49.6l-16.8-49.6c-1.6-4-5.6-6.4-10.4-4.8c-4,1.6-6.4,5.6-4.8,10.4l20.8,61.6
	h-23.2l-27.2-96h128L290.413,112z"/>
<linearGradient id="SVGID_4_" gradientUnits="userSpaceOnUse" x1="13.1362" y1="642.1337" x2="-49.5298" y2="578.1348" gradientTransform="matrix(8 0 0 -8 342.9096 5085)">
	<stop  offset="0" style="stop-color:#F7941E"/>
	<stop  offset="1" style="stop-color:#EE2A7B"/>
</linearGradient>
<path style="fill:url(#SVGID_4_);" d="M296.013,136h-80c-4.8,0-8,3.2-8,8s3.2,8,8,8h80c4.8,0,8-3.2,8-8S300.813,136,296.013,136z"/>
<linearGradient id="SVGID_5_" gradientUnits="userSpaceOnUse" x1="24.637" y1="630.8769" x2="-38.034" y2="566.8769" gradientTransform="matrix(8 0 0 -8 342.9096 5085)">
	<stop  offset="0" style="stop-color:#F7941E"/>
	<stop  offset="1" style="stop-color:#EE2A7B"/>
</linearGradient>
<path style="fill:url(#SVGID_5_);" d="M224.013,344c-4.8,0-8,3.2-8,8v11.2c0,16,12.8,28.8,28.8,28.8h3.2v16c0,4.8,3.2,8,8,8
	c4.8,0,8-3.2,8-8v-16c16,0,32-12.8,32-28.8v-8c0-9.6-5.6-18.4-14.4-24l-43.2-27.2c-3.2-2.4-5.6-6.4-5.6-10.4
	c0-7.2,5.6-12.8,12.8-12.8h18.4c7.2,0,16,5.6,16,12.8v2.4c0,4.8,3.2,8,8,8s8-3.2,8-8v-3.2c0-16-16-28.8-32-28.8v-16c0-4.8-3.2-8-8-8
	s-8,3.2-8,8v16h-3.2c-16,0-28.8,12.8-28.8,28.8c0,9.6,4.8,18.4,12.8,24l44.8,27.2c3.2,2.4,7.2,6.4,7.2,10.4v8
	c0,7.2-8.8,12.8-16,12.8h-19.2c-7.2,0-12.8-5.6-12.8-12.8V352C232.013,347.2,228.813,344,224.013,344z"/>
<linearGradient id="SVGID_6_" gradientUnits="userSpaceOnUse" x1="28.2687" y1="627.3132" x2="-34.3952" y2="563.3142" gradientTransform="matrix(8 0 0 -8 342.9096 5085)">
	<stop  offset="0" style="stop-color:#F7941E"/>
	<stop  offset="1" style="stop-color:#EE2A7B"/>
</linearGradient>
<path style="fill:url(#SVGID_6_);" d="M176.013,480c4.8,0,8-3.2,8-8s-3.2-8-8-8h-8c-4.8,0-8,3.2-8,8s3.2,8,8,8H176.013z"/>
<linearGradient id="SVGID_7_" gradientUnits="userSpaceOnUse" x1="30.3178" y1="625.3151" x2="-32.3543" y2="561.3152" gradientTransform="matrix(8 0 0 -8 342.9096 5085)">
	<stop  offset="0" style="stop-color:#F7941E"/>
	<stop  offset="1" style="stop-color:#EE2A7B"/>
</linearGradient>
<path style="fill:url(#SVGID_7_);" d="M208.013,480c4.8,0,8-3.2,8-8s-3.2-8-8-8h-8c-4.8,0-8,3.2-8,8s3.2,8,8,8H208.013z"/>
<linearGradient id="SVGID_8_" gradientUnits="userSpaceOnUse" x1="26.2287" y1="629.3132" x2="-36.4373" y2="565.3142" gradientTransform="matrix(8 0 0 -8 342.9096 5085)">
	<stop  offset="0" style="stop-color:#F7941E"/>
	<stop  offset="1" style="stop-color:#EE2A7B"/>
</linearGradient>
<path style="fill:url(#SVGID_8_);" d="M144.013,480c4.8,0,8-3.2,8-8s-3.2-8-8-8h-8c-4.8,0-8,3.2-8,8s3.2,8,8,8H144.013z"/>
<g>
</g>
<g>
</g>
<g>
</g>
<g>
</g>
<g>
</g>
<g>
</g>
<g>
</g>
<g>
</g>
<g>
</g>
<g>
</g>
<g>
</g>
<g>
</g>
<g>
</g>
<g>
</g>
<g>
</g>
</svg>
